nColumns=19
nRows=51
DataType=double
version=3
OpenSimVersion=4.1
endheader
time	ground_force_calcn_r_vx	ground_force_calcn_r_vy	ground_force_calcn_r_vz	ground_force_calcn_r_px	ground_force_calcn_r_py	ground_force_calcn_r_pz	ground_force_calcn_r_mx	ground_force_calcn_r_my	ground_force_calcn_r_mz	ground_force_calcn_l_vx	ground_force_calcn_l_vy	ground_force_calcn_l_vz	ground_force_calcn_l_px	ground_force_calcn_l_py	ground_force_calcn_l_pz	ground_force_calcn_l_mx	ground_force_calcn_l_my	ground_force_calcn_l_mz
0	-39.7176	279.309	8.74592	0.153672	0	-0.146288	-0.129886	0.913405	0.0286012	0	0	0	0	0	0	0	0	0
0.01	-49.0457	308.015	6.95859	0.158255	0	-0.14606	-0.131962	0.828742	0.0187227	0	0	0	0	0	0	0	0	0
0.02	-58.9199	340.024	4.59114	0.16359	0	-0.145747	-0.129513	0.747412	0.0100919	0	0	0	0	0	0	0	0	0
0.03	-69.009	374.562	1.62835	0.168789	0	-0.145395	-0.124189	0.674066	0.00293039	0	0	0	0	0	0	0	0	0
0.04	-78.9841	410.735	-1.86446	0.173777	0	-0.145041	-0.118068	0.613983	-0.00278707	0	0	0	0	0	0	0	0	0
0.05	-88.5435	447.728	-5.74496	0.17851	0	-0.144719	-0.113286	0.572839	-0.00735031	0	0	0	0	0	0	0	0	0
0.06	-97.4175	484.874	-9.82359	0.182948	0	-0.14446	-0.111208	0.553515	-0.0112143	0	0	0	0	0	0	0	0	0
0.07	-105.368	521.59	-13.9019	0.187061	0	-0.144281	-0.111856	0.553706	-0.0147579	0	0	0	0	0	0	0	0	0
0.08	-112.177	557.24	-17.786	0.190821	0	-0.144195	-0.114231	0.567442	-0.0181117	0	0	0	0	0	0	0	0	0
0.09	-117.641	591.052	-21.2899	0.194208	0	-0.144204	-0.116935	0.587502	-0.021162	0	0	0	0	0	0	0	0	0
0.1	-121.587	622.158	-24.2633	0.197215	0	-0.144299	-0.118348	0.605584	-0.0236169	0	0	0	0	0	0	0	0	0
0.11	-123.891	649.686	-26.6248	0.199853	0	-0.144464	-0.116781	0.612402	-0.0250969	0	0	0	0	0	0	0	0	0
0.12	-124.497	672.86	-28.3599	0.202148	0	-0.144675	-0.111017	0.600008	-0.0252893	0	0	0	0	0	0	0	0	0
0.13	-123.435	691.087	-29.5043	0.204139	0	-0.144908	-0.100588	0.563175	-0.0240434	0	0	0	0	0	0	0	0	0
0.14	-120.815	704.018	-30.1304	0.20588	0	-0.145139	-0.08569	0.499334	-0.0213704	0	0	0	0	0	0	0	0	0
0.15	-116.815	711.577	-30.3285	0.207423	0	-0.145344	-0.0670418	0.408385	-0.017406	0	0	0	0	0	0	0	0	0
0.16	-111.648	713.938	-30.1937	0.208826	0	-0.145505	-0.0456819	0.292116	-0.0123541	0	0	0	0	0	0	0	0	0
0.17	-105.549	711.48	-29.8174	0.21014	0	-0.145601	-0.022784	0.153581	-0.00643642	0	0	0	0	0	0	0	0	0
0.18	-98.7532	704.726	-29.2816	0.211416	0	-0.14562	0.000496523	-0.0035433	0.000147226	0	0	0	0	0	0	0	0	0
0.19	-91.4811	694.284	-28.6548	0.212699	0	-0.145546	0.0231544	-0.175728	0.00725272	0	0	0	0	0	0	0	0	0
0.2	-83.9337	680.81	-27.9906	0.214031	0	-0.145367	0.0443883	-0.360046	0.0148028	0	0	0	0	0	0	0	0	0
0.21	-76.2924	664.974	-27.3286	0.21545	0	-0.145072	0.0635962	-0.554312	0.0227807	0	0	0	0	0	0	0	0	0
0.22	-68.7206	647.447	-26.696	0.216997	0	-0.14465	0.0803391	-0.75691	0.0312095	0	0	0	0	0	0	0	0	0
0.23	-61.3611	628.896	-26.1097	0.218708	0	-0.144096	0.0942798	-0.966284	0.0401169	0	0	0	0	0	0	0	0	0
0.24	-54.3323	609.974	-25.5817	0.220621	0	-0.143402	0.105135	-1.18032	0.0495014	0	0	0	0	0	0	0	0	0
0.25	-47.7266	591.312	-25.1241	0.222769	0	-0.142562	0.112667	-1.3959	0.0593099	0	0	0	0	0	0	0	0	0
0.26	-41.6096	573.498	-24.7486	0.22518	0	-0.141577	0.116731	-1.60888	0.0694292	0	0	0	0	0	0	0	0	0
0.27	-36.0219	557.048	-24.4679	0.227872	0	-0.140445	0.117326	-1.81434	0.0796934	0	0	0	0	0	0	0	0	0
0.28	-30.9817	542.382	-24.2981	0.230851	0	-0.139168	0.114652	-2.00715	0.0899179	0	0	0	0	0	0	0	0	0
0.29	-26.487	529.813	-24.262	0.234108	0	-0.137751	0.109107	-2.18245	0.0999421	0	0	0	0	0	0	0	0	0
0.3	-22.5164	519.551	-24.3882	0.237618	0	-0.1362	0.101237	-2.33597	0.109652	0	0	0	0	0	0	0	0	0
0.31	-19.0324	511.709	-24.7063	0.241341	0	-0.134527	0.0916577	-2.46433	0.118982	0	0	0	0	0	0	0	0	0
0.32	-15.9825	506.312	-25.2402	0.24522	0	-0.13275	0.0809756	-2.56523	0.12788	0	0	0	0	0	0	0	0	0
0.33	-13.3015	503.311	-26.0016	0.24919	0	-0.13089	0.0697061	-2.63758	0.13626	0	0	0	0	0	0	0	0	0
0.34	-10.9135	502.597	-26.9873	0.253181	0	-0.12898	0.058226	-2.68148	0.143984	0	0	0	0	0	0	0	0	0
0.35	-8.7355	504.006	-28.1782	0.257124	0	-0.12705	0.0467663	-2.69824	0.150855	0	0	0	0	0	0	0	0	0
0.36	-6.68456	507.332	-29.5426	0.260957	0	-0.125136	0.035448	-2.69036	0.156663	0	0	0	0	0	0	0	0	0
0.37	-4.68281	512.331	-31.0403	0.26463	0	-0.12327	0.0243261	-2.66144	0.161248	0	0	0	0	0	0	0	0	0
0.38	-2.65891	518.728	-32.6288	0.268105	0	-0.121482	0.0134089	-2.61594	0.164547	0	0	0	0	0	0	0	0	0
0.39	-0.54759	526.234	-34.2661	0.271359	0	-0.119793	0.00266269	-2.55885	0.166621	0	0	0	0	0	0	0	0	0
0.4	1.7102	534.557	-35.9136	0.274379	0	-0.118224	-0.00798289	-2.49521	0.167638	0	0	0	0	0	0	0	0	0
0.41	4.16517	543.412	-37.537	0.277167	0	-0.116784	-0.0186247	-2.42989	0.167848	0	0	0	0	0	0	0	0	0
0.42	6.85805	552.523	-39.1058	0.279732	0	-0.11548	-0.0293846	-2.36739	0.167556	0	0	0	0	0	0	0	0	0
0.43	9.81936	561.622	-40.5929	0.282092	0	-0.114315	-0.0404179	-2.31172	0.167086	0	0	0	0	0	0	0	0	0
0.44	13.0706	570.462	-41.9758	0.284266	0	-0.113285	-0.0519225	-2.26614	0.166747	0	0	0	0	0	0	0	0	0
0.45	16.6241	578.818	-43.2378	0.286278	0	-0.112388	-0.0641305	-2.23289	0.166798	0	0	0	0	0	0	0	0	0
0.46	20.4827	586.493	-44.3685	0.288153	0	-0.111617	-0.0772878	-2.21303	0.167417	0	0	0	0	0	0	0	0	0
0.47	24.6411	593.321	-45.3618	0.289914	0	-0.110964	-0.0916333	-2.20639	0.168687	0	0	0	0	0	0	0	0	0
0.48	29.0874	599.172	-46.2118	0.291588	0	-0.110423	-0.107388	-2.21209	0.17061	0	0	0	0	0	0	0	0	0
0.49	33.8	603.945	-46.9072	0.293194	0	-0.109989	-0.124743	-2.22894	0.173117	0	0	0	0	0	0	0	0	0
0.5	38.7466	607.571	-47.4299	0.294752	0	-0.109657	-0.143851	-2.25566	0.176088	0	0	0	0	0	0	0	0	0
